<svg version="1.0" xmlns="http://www.w3.org/2000/svg"
 width="512.000000pt" height="512.000000pt" viewBox="0 0 512.000000 512.000000"
 preserveAspectRatio="xMidYMid meet">

<g transform="translate(0.000000,512.000000) scale(0.100000,-0.100000)"
fill="#000000" stroke="none">
<path d="M2265 5016 c-562 -69 -1041 -288 -1424 -652 -228 -217 -414 -485
-525 -758 -23 -55 -60 -126 -83 -156 -117 -155 -145 -304 -147 -785 -1 -238 2
-290 17 -349 56 -218 221 -366 443 -397 120 -17 120 -17 67 109 -176 419 -196
896 -56 1321 217 657 804 1165 1518 1314 66 14 162 30 214 37 121 14 421 14
542 0 636 -76 1177 -400 1516 -909 185 -278 285 -583 308 -936 17 -256 -50
-604 -165 -859 -20 -45 -27 -73 -21 -79 6 -6 41 -6 98 1 169 22 325 126 400
268 61 115 68 166 67 479 -1 289 -13 458 -39 561 -19 74 -74 187 -116 238 -18
21 -51 84 -74 141 -112 274 -297 542 -526 759 -364 346 -806 558 -1339 641
-143 23 -528 28 -675 11z m-1855 -1421 c0 -2 -10 -9 -22 -15 -22 -11 -22 -10
-4 4 21 17 26 19 26 11z m4340 -21 c0 -2 -9 0 -20 6 -11 6 -20 13 -20 16 0 2
9 0 20 -6 11 -6 20 -13 20 -16z m-4420 -27 c0 -2 -10 -12 -22 -23 l-23 -19 19
23 c18 21 26 27 26 19z m4485 -17 c10 -11 16 -20 13 -20 -3 0 -13 9 -23 20
-10 11 -16 20 -13 20 3 0 13 -9 23 -20z"/>
<path d="M2474 4091 c-18 -11 -45 -36 -60 -57 -25 -32 -29 -47 -29 -99 0 -49
5 -69 25 -98 73 -106 227 -106 300 0 20 29 25 49 25 98 0 53 -5 68 -29 99 -42
55 -81 76 -146 76 -37 0 -66 -6 -86 -19z"/>
<path d="M1485 3670 c-260 -68 -455 -257 -534 -514 -45 -147 -50 -401 -11
-631 130 -767 734 -1327 1494 -1384 712 -54 1354 338 1634 999 108 253 156
553 132 823 -19 223 -80 365 -215 502 -90 93 -180 150 -300 192 -74 26 -91 28
-235 28 -185 0 -238 -12 -385 -88 -186 -95 -213 -107 -292 -128 -59 -15 -110
-20 -208 -21 -184 0 -290 28 -455 121 -93 53 -184 89 -265 106 -99 21 -273 18
-360 -5z m475 -676 c34 -17 77 -63 89 -97 6 -16 11 -104 11 -204 0 -160 -2
-181 -21 -221 -64 -132 -254 -130 -319 3 -18 37 -20 62 -20 218 0 127 4 187
14 210 16 40 77 95 114 103 15 3 32 7 37 9 16 4 68 -7 95 -21z m1360 0 c34
-17 77 -63 89 -97 6 -16 11 -104 11 -204 0 -156 -2 -181 -20 -218 -65 -133
-255 -135 -319 -3 -19 40 -21 61 -21 221 0 127 4 187 14 210 16 40 77 95 114
103 15 3 32 7 37 9 16 4 68 -7 95 -21z m-900 -709 c19 -14 51 -37 70 -51 47
-35 113 -30 165 12 72 57 97 68 152 68 96 0 173 -78 173 -177 0 -86 -56 -159
-176 -227 -99 -57 -256 -77 -370 -46 -114 30 -249 127 -280 201 -41 99 13 213
115 246 42 13 112 1 151 -26z"/>
</g>
</svg>
